# xmcd
#
# Track frame offsets: 
#        182
#        11770
#        28857
#        42412
#        58425
#        71125
#        91035
#        107905
#        121437
#        134105
#        153187
#        164985
#        176945
#        188692
#        203102
#        215372
#        226955
#        243002
#        256482
#
# Disc length: 3625 seconds
#
# Revision: 1
# Processed by: cddbd v1.5.2PL0 Copyright (c) Steve Scherf et al.
# Submitted via: ExactAudioCopy v0.99pb5
#
DISCID=1f0e2713
DTITLE=Various Artist - Country Dreams
DYEAR=1900
DGENRE=Country
TTITLE0=W. Holyfield - Some broken hearts never mend
TTITLE1=R. Orbinson, J. Melson - Blue Bayou
TTITLE2=Denver - Annie's Song
TTITLE3=A. Hammond, H. David - To all the Girls I've loved before
TTITLE4=B. Huerta, M. Ducan - Wasted Days and wasted Nights
TTITLE5=W. Nelson - Angel fly too close to the ground
TTITLE6=B.R. and M. Gibb - Islands in the stream
TTITLE7=B. Swan - I can help
TTITLE8=B. Braddock, C. Putman - D.I.V.O.R.C.E.
TTITLE9=K. Kristofferson - Help me make it through the night
TTITLE10=Keith, Peters - Before the next teardrops falls
TTITLE11=R. Leigh - Don't it make my brown eyes blue
TTITLE12=D. Parton - Jolene
TTITLE13=Danoff, Nivert, Denver - Take me home, country road
TTITLE14=W. Holyfield - You're my best friend
TTITLE15=Payne - I love you because
TTITLE16=K. Kristofferson, F. Foster - Me and Bobby McGee
TTITLE17=B. and M. Gibb - I will always love you
TTITLE18=R. Bowling, H. Bynum - Lucille
EXTD=
EXTT0=
EXTT1=
EXTT2=
EXTT3=
EXTT4=
EXTT5=
EXTT6=
EXTT7=
EXTT8=
EXTT9=
EXTT10=
EXTT11=
EXTT12=
EXTT13=
EXTT14=
EXTT15=
EXTT16=
EXTT17=
EXTT18=
PLAYORDER=
